<svg width="28" height="28" viewBox="0 0 28 28" fill="none" xmlns="http://www.w3.org/2000/svg">
<path d="M11.375 1.75C9.92553 1.75 8.75 2.92455 8.75 4.37457V5.25H2.625C1.17525 5.25 0 6.42525 0 7.875V21.875C0 23.3247 1.17525 24.5 2.625 24.5H25.375C26.8247 24.5 28 23.3247 28 21.875V7.875C28 6.42525 26.8247 5.25 25.375 5.25H19.25V4.37457C19.25 2.92455 18.0745 1.75 16.625 1.75H11.375ZM11.375 3.5H16.625C17.1085 3.5 17.5 3.8931 17.5 4.37608V5.25H10.5V4.37457C10.5 3.8916 10.8915 3.5 11.375 3.5ZM14.6764 15.6002L26.25 12.5139V21.875C26.25 22.3582 25.8582 22.75 25.375 22.75H2.625C2.14175 22.75 1.75 22.3582 1.75 21.875V12.5139L13.3236 15.6002C13.7668 15.7184 14.2332 15.7184 14.6764 15.6002ZM2.625 7H25.375C25.8582 7 26.25 7.39175 26.25 7.875V10.7028L14.2255 13.9093C14.0777 13.9487 13.9223 13.9487 13.7745 13.9093L1.75 10.7028V7.875C1.75 7.39175 2.14175 7 2.625 7Z" fill="#6C757D"/>
</svg>
