<svg width="30" height="29" viewBox="0 0 30 29" fill="none" xmlns="http://www.w3.org/2000/svg">
<path d="M16 6.125C16 5.64175 15.6082 5.25 15.125 5.25C14.6418 5.25 14.25 5.64175 14.25 6.125V15.75C14.25 16.064 14.4183 16.3539 14.6909 16.5097L20.8159 20.0097C21.2355 20.2495 21.77 20.1037 22.0097 19.6841C22.2495 19.2645 22.1037 18.73 21.6841 18.4903L16 15.2422V6.125Z" fill="#6C757D"/>
<path d="M16 28C23.732 28 30 21.732 30 14C30 6.26801 23.732 0 16 0C8.26801 0 2 6.26801 2 14C2 21.732 8.26801 28 16 28ZM28.25 14C28.25 20.7655 22.7655 26.25 16 26.25C9.23451 26.25 3.75 20.7655 3.75 14C3.75 7.23451 9.23451 1.75 16 1.75C22.7655 1.75 28.25 7.23451 28.25 14Z" fill="#6C757D"/>
</svg>
