<svg width="500" height="500" viewBox="0 0 500 500" fill="none" xmlns="http://www.w3.org/2000/svg">
<rect width="500" height="500" fill="white"/>
<rect x="261" y="144" width="94" height="208" transform="rotate(30 261 144)" fill="#FFA800"/>
<rect x="116" y="144" width="94" height="208" transform="rotate(30 116 144)" fill="#FFA800"/>
<rect x="408" y="144" width="94" height="208" transform="rotate(30 408 144)" fill="#FFA800"/>
<path d="M31.7513 284L13.1273 232.352H27.2393L42.6953 276.8H35.9753L52.1033 232.352H64.7753L80.4233 276.8H73.7033L89.6393 232.352H102.887L84.1673 284H69.6713L55.9433 245.888H60.3593L46.1513 284H31.7513ZM134.075 284.768C128.187 284.768 123.003 283.616 118.523 281.312C114.107 279.008 110.683 275.872 108.251 271.904C105.819 267.872 104.603 263.296 104.603 258.176C104.603 252.992 105.787 248.416 108.155 244.448C110.587 240.416 113.883 237.28 118.043 235.04C122.203 232.736 126.907 231.584 132.155 231.584C137.211 231.584 141.755 232.672 145.787 234.848C149.883 236.96 153.115 240.032 155.483 244.064C157.851 248.032 159.035 252.8 159.035 258.368C159.035 258.944 159.003 259.616 158.939 260.384C158.875 261.088 158.811 261.76 158.747 262.4H116.795V253.664H150.875L145.115 256.256C145.115 253.568 144.571 251.232 143.483 249.248C142.395 247.264 140.891 245.728 138.971 244.64C137.051 243.488 134.811 242.912 132.251 242.912C129.691 242.912 127.419 243.488 125.435 244.64C123.515 245.728 122.011 247.296 120.923 249.344C119.835 251.328 119.291 253.696 119.291 256.448V258.752C119.291 261.568 119.899 264.064 121.115 266.24C122.395 268.352 124.155 269.984 126.395 271.136C128.699 272.224 131.387 272.768 134.459 272.768C137.211 272.768 139.611 272.352 141.659 271.52C143.771 270.688 145.691 269.44 147.419 267.776L155.387 276.416C153.019 279.104 150.043 281.184 146.459 282.656C142.875 284.064 138.747 284.768 134.075 284.768ZM191.182 284.768C186.318 284.768 181.934 283.68 178.03 281.504C174.126 279.264 171.022 276.16 168.718 272.192C166.478 268.224 165.358 263.552 165.358 258.176C165.358 252.736 166.478 248.032 168.718 244.064C171.022 240.096 174.126 237.024 178.03 234.848C181.934 232.672 186.318 231.584 191.182 231.584C195.534 231.584 199.342 232.544 202.606 234.464C205.87 236.384 208.398 239.296 210.19 243.2C211.982 247.104 212.878 252.096 212.878 258.176C212.878 264.192 212.014 269.184 210.286 273.152C208.558 277.056 206.062 279.968 202.798 281.888C199.598 283.808 195.726 284.768 191.182 284.768ZM193.774 272.48C196.206 272.48 198.414 271.904 200.398 270.752C202.382 269.6 203.95 267.968 205.102 265.856C206.318 263.68 206.926 261.12 206.926 258.176C206.926 255.168 206.318 252.608 205.102 250.496C203.95 248.384 202.382 246.752 200.398 245.6C198.414 244.448 196.206 243.872 193.774 243.872C191.278 243.872 189.038 244.448 187.054 245.6C185.07 246.752 183.47 248.384 182.254 250.496C181.102 252.608 180.526 255.168 180.526 258.176C180.526 261.12 181.102 263.68 182.254 265.856C183.47 267.968 185.07 269.6 187.054 270.752C189.038 271.904 191.278 272.48 193.774 272.48ZM207.31 284V273.44L207.598 258.08L206.638 242.816V212.768H221.614V284H207.31ZM261.107 284.768C255.219 284.768 250.035 283.616 245.555 281.312C241.139 279.008 237.715 275.872 235.283 271.904C232.851 267.872 231.635 263.296 231.635 258.176C231.635 252.992 232.819 248.416 235.187 244.448C237.619 240.416 240.915 237.28 245.075 235.04C249.235 232.736 253.939 231.584 259.187 231.584C264.243 231.584 268.787 232.672 272.819 234.848C276.915 236.96 280.147 240.032 282.515 244.064C284.883 248.032 286.067 252.8 286.067 258.368C286.067 258.944 286.035 259.616 285.971 260.384C285.907 261.088 285.843 261.76 285.779 262.4H243.827V253.664H277.906L272.147 256.256C272.147 253.568 271.603 251.232 270.515 249.248C269.427 247.264 267.923 245.728 266.003 244.64C264.083 243.488 261.843 242.912 259.283 242.912C256.723 242.912 254.451 243.488 252.467 244.64C250.547 245.728 249.043 247.296 247.955 249.344C246.867 251.328 246.323 253.696 246.323 256.448V258.752C246.323 261.568 246.931 264.064 248.147 266.24C249.427 268.352 251.187 269.984 253.427 271.136C255.731 272.224 258.419 272.768 261.491 272.768C264.243 272.768 266.643 272.352 268.691 271.52C270.803 270.688 272.723 269.44 274.451 267.776L282.419 276.416C280.051 279.104 277.075 281.184 273.491 282.656C269.907 284.064 265.779 284.768 261.107 284.768ZM313.413 284.768C308.997 284.768 304.741 284.256 300.645 283.232C296.613 282.144 293.413 280.8 291.045 279.2L296.037 268.448C298.405 269.92 301.189 271.136 304.389 272.096C307.653 272.992 310.853 273.44 313.989 273.44C317.445 273.44 319.877 273.024 321.285 272.192C322.757 271.36 323.493 270.208 323.493 268.736C323.493 267.52 322.917 266.624 321.765 266.048C320.677 265.408 319.205 264.928 317.349 264.608C315.493 264.288 313.445 263.968 311.205 263.648C309.029 263.328 306.821 262.912 304.581 262.4C302.341 261.824 300.293 260.992 298.437 259.904C296.581 258.816 295.077 257.344 293.925 255.488C292.837 253.632 292.293 251.232 292.293 248.288C292.293 245.024 293.221 242.144 295.077 239.648C296.997 237.152 299.749 235.2 303.333 233.792C306.917 232.32 311.205 231.584 316.197 231.584C319.717 231.584 323.301 231.968 326.949 232.736C330.597 233.504 333.637 234.624 336.069 236.096L331.077 246.752C328.581 245.28 326.053 244.288 323.493 243.776C320.997 243.2 318.565 242.912 316.197 242.912C312.869 242.912 310.437 243.36 308.901 244.256C307.365 245.152 306.597 246.304 306.597 247.712C306.597 248.992 307.141 249.952 308.229 250.592C309.381 251.232 310.885 251.744 312.741 252.128C314.597 252.512 316.613 252.864 318.789 253.184C321.029 253.44 323.269 253.856 325.509 254.432C327.749 255.008 329.765 255.84 331.557 256.928C333.413 257.952 334.917 259.392 336.069 261.248C337.221 263.04 337.797 265.408 337.797 268.352C337.797 271.552 336.837 274.4 334.917 276.896C332.997 279.328 330.213 281.248 326.565 282.656C322.981 284.064 318.597 284.768 313.413 284.768ZM347.037 284V232.352H362.013V284H347.037ZM354.525 225.152C351.773 225.152 349.533 224.352 347.805 222.752C346.077 221.152 345.213 219.168 345.213 216.8C345.213 214.432 346.077 212.448 347.805 210.848C349.533 209.248 351.773 208.448 354.525 208.448C357.277 208.448 359.517 209.216 361.245 210.752C362.973 212.224 363.837 214.144 363.837 216.512C363.837 219.008 362.973 221.088 361.245 222.752C359.581 224.352 357.341 225.152 354.525 225.152ZM400.872 284.768C395.304 284.768 390.344 283.648 385.992 281.408C381.64 279.104 378.216 275.936 375.72 271.904C373.288 267.872 372.072 263.296 372.072 258.176C372.072 252.992 373.288 248.416 375.72 244.448C378.216 240.416 381.64 237.28 385.992 235.04C390.344 232.736 395.304 231.584 400.872 231.584C406.312 231.584 411.048 232.736 415.08 235.04C419.112 237.28 422.088 240.512 424.008 244.736L412.392 250.976C411.048 248.544 409.352 246.752 407.304 245.6C405.32 244.448 403.144 243.872 400.776 243.872C398.216 243.872 395.912 244.448 393.864 245.6C391.816 246.752 390.184 248.384 388.968 250.496C387.816 252.608 387.24 255.168 387.24 258.176C387.24 261.184 387.816 263.744 388.968 265.856C390.184 267.968 391.816 269.6 393.864 270.752C395.912 271.904 398.216 272.48 400.776 272.48C403.144 272.48 405.32 271.936 407.304 270.848C409.352 269.696 411.048 267.872 412.392 265.376L424.008 271.712C422.088 275.872 419.112 279.104 415.08 281.408C411.048 283.648 406.312 284.768 400.872 284.768ZM456.551 284.768C451.047 284.768 446.151 283.616 441.863 281.312C437.639 279.008 434.279 275.872 431.783 271.904C429.351 267.872 428.135 263.296 428.135 258.176C428.135 252.992 429.351 248.416 431.783 244.448C434.279 240.416 437.639 237.28 441.863 235.04C446.151 232.736 451.047 231.584 456.551 231.584C461.991 231.584 466.855 232.736 471.143 235.04C475.431 237.28 478.791 240.384 481.223 244.352C483.655 248.32 484.871 252.928 484.871 258.176C484.871 263.296 483.655 267.872 481.223 271.904C478.791 275.872 475.431 279.008 471.143 281.312C466.855 283.616 461.991 284.768 456.551 284.768ZM456.551 272.48C459.047 272.48 461.287 271.904 463.271 270.752C465.255 269.6 466.823 267.968 467.975 265.856C469.127 263.68 469.703 261.12 469.703 258.176C469.703 255.168 469.127 252.608 467.975 250.496C466.823 248.384 465.255 246.752 463.271 245.6C461.287 244.448 459.047 243.872 456.551 243.872C454.055 243.872 451.815 244.448 449.831 245.6C447.847 246.752 446.247 248.384 445.031 250.496C443.879 252.608 443.303 255.168 443.303 258.176C443.303 261.12 443.879 263.68 445.031 265.856C446.247 267.968 447.847 269.6 449.831 270.752C451.815 271.904 454.055 272.48 456.551 272.48Z" fill="black"/>
</svg>
