<svg width="28" height="31" viewBox="0 0 28 31" fill="none" xmlns="http://www.w3.org/2000/svg">
<path d="M14 15.3136C17.866 15.3136 21 11.8855 21 7.65679C21 3.42806 17.866 0 14 0C10.134 0 7 3.42806 7 7.65679C7 11.8855 10.134 15.3136 14 15.3136ZM18.6667 7.65679C18.6667 10.4759 16.5773 12.7613 14 12.7613C11.4227 12.7613 9.33333 10.4759 9.33333 7.65679C9.33333 4.83764 11.4227 2.55226 14 2.55226C16.5773 2.55226 18.6667 4.83764 18.6667 7.65679Z" fill="#6C757D"/>
<path d="M28 28.0749C28 30.6272 25.6667 30.6272 25.6667 30.6272H2.33333C2.33333 30.6272 0 30.6272 0 28.0749C0 25.5226 2.33333 17.8658 14 17.8658C25.6667 17.8658 28 25.5226 28 28.0749ZM25.6666 28.066C25.6633 27.4361 25.3079 25.5493 23.7251 23.818C22.2031 22.1533 19.3412 20.4181 14 20.4181C8.65872 20.4181 5.79682 22.1533 4.27489 23.818C2.69209 25.5493 2.33666 27.4361 2.33333 28.066H25.6666Z" fill="#6C757D"/>
</svg>
